<svg xmlns="http://www.w3.org/2000/svg" width="10.548" height="10.549" viewBox="0 0 10.548 10.549">
  <path id="FontAwsome_baby-carriage_" data-name="FontAwsome (baby-carriage)" d="M2.983.336A.774.774,0,0,0,1.871.142,4.855,4.855,0,0,0,0,3.941H5.274Zm7.235,1.628H9.23A1.32,1.32,0,0,0,7.911,3.282V4.6H0A3.653,3.653,0,0,0,1.242,7.293,1.646,1.646,0,1,0,3.3,8.886a1.665,1.665,0,0,0-.091-.519,5.333,5.333,0,0,0,2.818,0,1.607,1.607,0,0,0-.091.519A1.648,1.648,0,1,0,7.987,7.293,3.653,3.653,0,0,0,9.23,4.6V3.282h.989a.331.331,0,0,0,.33-.33V2.293A.331.331,0,0,0,10.219,1.963ZM1.648,9.545a.659.659,0,1,1,.659-.659A.661.661,0,0,1,1.648,9.545Zm6.593-.659a.659.659,0,1,1-.659-.659A.661.661,0,0,1,8.241,8.886Z" transform="translate(0 0.015)"/>
</svg>
