<svg xmlns="http://www.w3.org/2000/svg" width="13.003" height="14.86" viewBox="0 0 13.003 14.86">
  <path id="FontAwsome_calendar-alt_" data-name="FontAwsome (calendar-alt)" d="M4.3,8.359H3.135a.349.349,0,0,1-.348-.348V6.85A.349.349,0,0,1,3.135,6.5H4.3a.349.349,0,0,1,.348.348V8.011A.349.349,0,0,1,4.3,8.359ZM7.43,8.011V6.85A.349.349,0,0,0,7.082,6.5H5.921a.349.349,0,0,0-.348.348V8.011a.349.349,0,0,0,.348.348H7.082A.349.349,0,0,0,7.43,8.011Zm2.786,0V6.85A.349.349,0,0,0,9.868,6.5H8.707a.349.349,0,0,0-.348.348V8.011a.349.349,0,0,0,.348.348H9.868A.349.349,0,0,0,10.217,8.011ZM7.43,10.8V9.636a.349.349,0,0,0-.348-.348H5.921a.349.349,0,0,0-.348.348V10.8a.349.349,0,0,0,.348.348H7.082A.349.349,0,0,0,7.43,10.8Zm-2.786,0V9.636A.349.349,0,0,0,4.3,9.288H3.135a.349.349,0,0,0-.348.348V10.8a.349.349,0,0,0,.348.348H4.3A.349.349,0,0,0,4.644,10.8Zm5.573,0V9.636a.349.349,0,0,0-.348-.348H8.707a.349.349,0,0,0-.348.348V10.8a.349.349,0,0,0,.348.348H9.868A.349.349,0,0,0,10.217,10.8ZM13,3.251V13.467A1.394,1.394,0,0,1,11.61,14.86H1.393A1.394,1.394,0,0,1,0,13.467V3.251A1.394,1.394,0,0,1,1.393,1.858H2.786V.348A.349.349,0,0,1,3.135,0H4.3a.349.349,0,0,1,.348.348V1.858H8.359V.348A.349.349,0,0,1,8.707,0H9.868a.349.349,0,0,1,.348.348V1.858H11.61A1.394,1.394,0,0,1,13,3.251ZM11.61,13.293V4.644H1.393v8.649a.175.175,0,0,0,.174.174h9.868A.175.175,0,0,0,11.61,13.293Z"/>
</svg>
