<svg xmlns="http://www.w3.org/2000/svg" width="30.836" height="35.242" viewBox="0 0 30.836 35.242">
  <path id="FontAwsome_user-nurse_" data-name="FontAwsome (user-nurse)" d="M21.985,22.022l-6.567,6.566L8.851,22.022A9.23,9.23,0,0,0,0,31.231a4.007,4.007,0,0,0,4.007,4.007H26.829a4.007,4.007,0,0,0,4.007-4.007A9.23,9.23,0,0,0,21.985,22.022Zm-6.567-1.1a8.81,8.81,0,0,0,8.81-8.81V4.526A2.2,2.2,0,0,0,22.8,2.462L16.965.276a4.405,4.405,0,0,0-3.093,0L8.037,2.464A2.2,2.2,0,0,0,6.608,4.526V12.11a8.81,8.81,0,0,0,8.81,8.81ZM12.665,4.929a.344.344,0,0,1,.344-.344H14.5V3.093a.344.344,0,0,1,.344-.344h1.147a.344.344,0,0,1,.344.344V4.585h1.492a.344.344,0,0,1,.344.344V6.076a.344.344,0,0,1-.344.344H16.336V7.912a.344.344,0,0,1-.344.344H14.845a.344.344,0,0,1-.344-.344V6.42H13.009a.344.344,0,0,1-.344-.344Zm-2.753,6.08H20.925v1.1a5.506,5.506,0,1,1-11.013,0Z" transform="translate(0 0.004)" fill="#fff"/>
</svg>
