<svg xmlns="http://www.w3.org/2000/svg" width="25.598" height="25.598" viewBox="0 0 25.598 25.598">
  <path id="Icon_metro-earth" data-name="Icon metro-earth" d="M15.37,1.928a12.8,12.8,0,1,0,12.8,12.8,12.8,12.8,0,0,0-12.8-12.8Zm0,24a11.162,11.162,0,0,1-4.43-.911l5.828-6.557a.8.8,0,0,0,.2-.531v-2.4a.8.8,0,0,0-.8-.8c-2.825,0-5.8-2.936-5.834-2.965a.8.8,0,0,0-.566-.234H6.57a.8.8,0,0,0-.8.8v4.8a.8.8,0,0,0,.442.716L8.97,19.221v4.7A11.206,11.206,0,0,1,5.249,9.927H8.17a.8.8,0,0,0,.566-.234l3.2-3.2a.8.8,0,0,0,.234-.566V3.993a11.23,11.23,0,0,1,8.106.665c-.1.088-.2.179-.3.276a4.8,4.8,0,0,0,3.391,8.194q.119,0,.238-.006a18.785,18.785,0,0,1-.21,9.308.8.8,0,0,0-.021.131,11.164,11.164,0,0,1-8,3.366Z" transform="translate(-2.571 -1.928)"/>
</svg>
