<svg xmlns="http://www.w3.org/2000/svg" width="35.159" height="32.033" viewBox="0 0 35.159 32.033">
  <g id="siren-light" transform="translate(0 0)">
    <path id="Path_28" data-name="Path 28" d="M232.357,27.738a1.123,1.123,0,0,0,1.123-1.123V23.086a1.123,1.123,0,1,0-2.246,0v3.529A1.123,1.123,0,0,0,232.357,27.738Z" transform="translate(-214.778 -21.963)" fill="#fff"/>
    <path id="Path_29" data-name="Path 29" d="M82.818,81.452a1.124,1.124,0,0,0,1.722-1.444l-2.267-2.7a1.124,1.124,0,0,0-1.722,1.444Z" transform="translate(-74.575 -72.994)" fill="#fff"/>
    <path id="Path_30" data-name="Path 30" d="M4.6,218.875a1.123,1.123,0,0,0,.194-2.229l-3.474-.614a1.123,1.123,0,0,0-.39,2.213l3.474.614A1.146,1.146,0,0,0,4.6,218.875Z" transform="translate(0 -202.205)" fill="#fff"/>
    <path id="Path_31" data-name="Path 31" d="M418.028,216.042l-3.476.613a1.123,1.123,0,0,0,.194,2.229,1.138,1.138,0,0,0,.2-.017l3.476-.613a1.123,1.123,0,0,0-.39-2.213Z" transform="translate(-384.188 -202.214)" fill="#fff"/>
    <path id="Path_32" data-name="Path 32" d="M351.414,81.9a1.12,1.12,0,0,0,.861-.4l2.267-2.7a1.123,1.123,0,1,0-1.72-1.445l-2.267,2.7a1.123,1.123,0,0,0,.859,1.846Z" transform="translate(-325.362 -73.043)" fill="#fff"/>
    <rect id="Rectangle_24" data-name="Rectangle 24" width="29.437" height="5.406" transform="translate(2.861 26.627)" fill="#fff"/>
    <path id="Path_33" data-name="Path 33" d="M109.577,123.848a10.531,10.531,0,0,0-10.531,10.531v7.189h21.061v-7.189A10.531,10.531,0,0,0,109.577,123.848Zm-8.284,15.473v-4.942a8.289,8.289,0,0,1,7.659-8.252,10.479,10.479,0,0,0-4.022,8.252v4.942Z" transform="translate(-91.997 -116.597)" fill="#fff"/>
  </g>
</svg>
