<svg xmlns="http://www.w3.org/2000/svg" width="14.86" height="14.86" viewBox="0 0 14.86 14.86">
  <path id="FontAwsome_history_" data-name="FontAwsome (history)" d="M22.86,15.416a7.431,7.431,0,0,1-12.093,5.8.719.719,0,0,1-.055-1.067l.338-.338a.72.72,0,0,1,.955-.059,5.513,5.513,0,1,0-.352-8.338l1.521,1.521a.479.479,0,0,1-.339.818H8.479A.479.479,0,0,1,8,13.273V8.918a.479.479,0,0,1,.818-.339L10.3,10.058A7.43,7.43,0,0,1,22.86,15.416Zm-5.42,2.36.294-.378a.719.719,0,0,0-.126-1.009l-1.219-.948V12.314a.719.719,0,0,0-.719-.719h-.479a.719.719,0,0,0-.719.719v4.064l1.96,1.524A.719.719,0,0,0,17.44,17.777Z" transform="translate(-8 -8)"/>
</svg>
