<svg id="pets-hotel-sign" xmlns="http://www.w3.org/2000/svg" width="29.883" height="34.106" viewBox="0 0 29.883 34.106">
  <g id="Group_10" data-name="Group 10" transform="translate(0)">
    <path id="Path_15" data-name="Path 15" d="M30.386,4.593a2.145,2.145,0,0,0,1.727,0,2.555,2.555,0,0,1,2.084,0,2.145,2.145,0,0,0,1.727,0,2.556,2.556,0,0,1,2.084,0,2.145,2.145,0,0,0,1.727,0,2.555,2.555,0,0,1,2.084,0,2.145,2.145,0,0,0,1.727,0,2.556,2.556,0,0,1,2.084,0,2.145,2.145,0,0,0,1.727,0,2.556,2.556,0,0,1,2.084,0,2.144,2.144,0,0,0,1.727,0,2.529,2.529,0,0,1,1.042-.222,2.584,2.584,0,0,1,1.832.759c.8.8.9.274,1.075-1.648S52.611,0,49.124,0H32.433c-3.486,0-6.17,1.558-6,3.481s.28,2.443,1.075,1.648a2.585,2.585,0,0,1,1.832-.759A2.517,2.517,0,0,1,30.386,4.593Z" transform="translate(-26.429)" fill="#fff"/>
    <path id="Path_16" data-name="Path 16" d="M191.434,288.59a.189.189,0,0,0-.189.189c0,.213-.307.445-.772.5V288.5a.393.393,0,0,0,.109-.065c.188-.164.395-.386.395-.572a.7.7,0,0,0-1.385,0c0,.185.207.408.395.572a.385.385,0,0,0,.109.065v.783c-.506-.041-.85-.286-.85-.51a.189.189,0,1,0-.377,0c0,.5.605.9,1.378.9h.046c.751-.015,1.331-.4,1.331-.9A.187.187,0,0,0,191.434,288.59Z" transform="translate(-175.888 -264.305)" fill="#fff"/>
    <path id="Path_17" data-name="Path 17" d="M155.21,124.643c.668,0,1.05-.635,1.05-1.486,0-.791-.369-1.466-1.05-1.466s-1.064.636-1.064,1.486S154.548,124.643,155.21,124.643Z" transform="translate(-143.942 -111.97)" fill="#fff"/>
    <path id="Path_18" data-name="Path 18" d="M218.112,265.57a.688.688,0,1,0,.567.677A.63.63,0,0,0,218.112,265.57Zm.112.7a.22.22,0,1,1,.124-.251A.2.2,0,0,1,218.224,266.274Z" transform="translate(-202.276 -244.353)" fill="#fff"/>
    <path id="Path_19" data-name="Path 19" d="M178.189,266.247a.576.576,0,1,0-.567.678A.629.629,0,0,0,178.189,266.247Zm-.454.027a.22.22,0,1,1,.124-.252A.2.2,0,0,1,177.734,266.274Z" transform="translate(-165.022 -244.353)" fill="#fff"/>
    <path id="Path_20" data-name="Path 20" d="M128.341,196.947a3.432,3.432,0,0,0-3.2,2.174l-.263.66-.263-.66a3.449,3.449,0,0,0-6.654,1.276l-.006.055c-.008.045-.778,4.663,7.19,9.3.96-.571,6.65-4.174,6.65-9.353A3.456,3.456,0,0,0,128.341,196.947Zm-9.613,4.009a3.183,3.183,0,0,1,5.819-1.785c-.111.011-.224.027-.34.049l-.523.111c-.615-.725-1.84-1.783-3.637.2-1.936,2.138-.956,3.719.362,4.013l.01.344a5.722,5.722,0,0,0,.36,1.981C118.3,203.115,118.728,200.956,118.728,200.956Zm6.37,8.258a21.53,21.53,0,0,1-2.221-1.454,6.45,6.45,0,0,0,1.979.274,6.027,6.027,0,0,0,2.521-.453A15.04,15.04,0,0,1,125.1,209.214Zm-.243-1.935c-2.934,0-3.551-1.495-3.663-3.061a1.59,1.59,0,0,0,.8-.459,4.145,4.145,0,0,0,.827-2.55.456.456,0,0,1,.043-.158,3.454,3.454,0,0,0-.446-.93.283.283,0,1,1,.461-.328,4.179,4.179,0,0,1,.462.894c.34-.181.7-.338.877-.411l.176-.071a.505.505,0,0,0,.286-.287,2.469,2.469,0,0,1,.391,0,.5.5,0,0,0,.285.285l.175.071a9.67,9.67,0,0,1,.947.449,4.078,4.078,0,0,1,.475-.931.283.283,0,1,1,.462.328,3.315,3.315,0,0,0-.486,1.089,4.143,4.143,0,0,0,.827,2.548,1.6,1.6,0,0,0,.764.449C128.412,206.113,127.693,207.279,124.855,207.279Zm4.81-7.747c-1.786-1.973-3.008-.939-3.627-.214l-.492-.094c-.12-.023-.238-.039-.354-.051a3.183,3.183,0,0,1,5.82,1.784,7.973,7.973,0,0,1-2.126,5.121,5.66,5.66,0,0,0,.4-2.189l.008-.342C130.619,203.251,131.6,201.671,129.665,199.532Z" transform="translate(-110.619 -181.212)" fill="#fff"/>
    <path id="Path_21" data-name="Path 21" d="M323.328,334.925l-1.108-.7a.645.645,0,0,0-.689.026,7.949,7.949,0,0,0-2.631,3.324c-.071.219-.222.258-.38.09a4.9,4.9,0,0,0-.922-.785.421.421,0,0,0-.574.176l-.19.348a.554.554,0,0,0,.109.647l1.611,1.451a.35.35,0,0,0,.541-.069c.632-.932,2.461-3.454,4.187-4.153C323.5,335.19,323.524,335.049,323.328,334.925Z" transform="translate(-293.578 -307.441)" fill="#fff"/>
    <path id="Path_22" data-name="Path 22" d="M72.357,93.967a4.306,4.306,0,0,1,6.154-3.9V68.944a1.215,1.215,0,0,0-.017-.173,1.631,1.631,0,0,0-1.2.041,3.138,3.138,0,0,1-2.5,0,1.61,1.61,0,0,0-1.31,0,3.137,3.137,0,0,1-2.5,0,1.611,1.611,0,0,0-1.31,0,3.137,3.137,0,0,1-2.5,0,1.611,1.611,0,0,0-1.31,0,3.137,3.137,0,0,1-2.5,0,1.61,1.61,0,0,0-1.31,0,3.137,3.137,0,0,1-2.5,0,1.611,1.611,0,0,0-1.31,0,3.137,3.137,0,0,1-2.5,0,1.63,1.63,0,0,0-1.184-.048,1.248,1.248,0,0,0-.018.18V96.03a1.262,1.262,0,0,0,1.262,1.262h8.081V94.835A.631.631,0,0,1,64.5,94.2h4.633a.631.631,0,0,1,.631.631v2.458h4.159A4.3,4.3,0,0,1,72.357,93.967ZM73.139,72.2h.986v3.54h1.738v.829H73.139Zm-3.464,0h2.691v.81H70.659v.908h1.609v.8H70.659v1.038h1.8v.81H69.674V72.2Zm-3.893,0H69.14v.829H67.947v3.54h-.985v-3.54h-1.18V72.2Zm-2.214-.079a2.039,2.039,0,0,1,2.075,2.218,2.077,2.077,0,0,1-2.147,2.3,2.043,2.043,0,0,1-2.055-2.23A2.118,2.118,0,0,1,63.567,72.125Zm-5.4,4.448h-.985V72.2h.985v1.679H59.79V72.2h.985v4.37H59.79V74.744H58.163ZM66.94,92.3l-.14.076-.137-.079c-8.259-4.744-7.686-9.493-7.609-9.951a4.016,4.016,0,0,1,7.482-2,4.015,4.015,0,0,1,7.482,2.026C74.019,88.336,67.229,92.14,66.94,92.3Z" transform="translate(-52.28 -63.186)" fill="#fff"/>
    <path id="Path_23" data-name="Path 23" d="M297.144,348.442a2.442,2.442,0,1,1-2.409-2.832,2.411,2.411,0,0,1,.957.2,7.816,7.816,0,0,1,.509-.683,3.278,3.278,0,1,0,1.815,2.93,3.22,3.22,0,0,0-.056-.586C297.662,347.8,297.385,348.132,297.144,348.442Z" transform="translate(-270.281 -317.227)" fill="#fff"/>
  </g>
</svg>
