<svg id="partner" xmlns="http://www.w3.org/2000/svg" width="34.021" height="37.265" viewBox="0 0 34.021 37.265">
  <path id="Path_2" data-name="Path 2" d="M241.968,211.888c-.058-.287-.116-.587-.172-.917a2.755,2.755,0,0,0-.467-1.426,7.013,7.013,0,0,0-1.179,1.82l-3.366,6.97a1.617,1.617,0,0,0-.033,1.356,1.225,1.225,0,0,0,.794.693,9.882,9.882,0,0,0,3.238.356,1.806,1.806,0,0,0,1.537-1.9l-.348-6.9C241.971,211.919,241.969,211.9,241.968,211.888Z" transform="translate(-219.627 -193.062)" fill="#fff"/>
  <path id="Path_3" data-name="Path 3" d="M37.631,92.245A17.007,17.007,0,0,0,44.49,59.674c-.011.035-.015.07-.028.1a11.058,11.058,0,0,1-.668,1.939,14.816,14.816,0,0,1,5.729,22.408A16.885,16.885,0,0,1,46.18,80.5a29.2,29.2,0,0,1-2.424-3.963l.212,4.189a2.456,2.456,0,0,1-2.159,2.593c-.192.009-.379.014-.562.014a10.715,10.715,0,0,1-2.889-.394,1.868,1.868,0,0,1-1.215-1.054,2.283,2.283,0,0,1,.041-1.912L40.549,73a8.171,8.171,0,0,1,1.3-1.985c-.018-.012-.032-.028-.051-.04-.819-.5-1.529.133-3.758.108a.966.966,0,0,0-1.708-.133,18.411,18.411,0,0,1-6.26-2.26.887.887,0,0,0,.012-.1,1.271,1.271,0,0,0-2.464,0,.943.943,0,0,0,.6.82,7.8,7.8,0,0,0,6.288,7.5L33.388,78.8a2.1,2.1,0,0,0-.2,1.786,1.84,1.84,0,0,0,1.138,1.122c.579.207,1.2.4,1.855.584,0,0,.947,2.347,1.672,3.693v4.109c-.074,0-.145.011-.219.011a14.86,14.86,0,0,1-6.682-28.138,15.63,15.63,0,0,1-.783-2.013,17.008,17.008,0,0,0,7.467,32.29Zm.875-5.15A12.889,12.889,0,0,0,40.6,89.584v.224a14.91,14.91,0,0,1-2.092.255Z" transform="translate(-20.62 -54.98)" fill="#fff"/>
  <path id="Path_4" data-name="Path 4" d="M154.424,4.343s1.488,5.662,5.825,7.326c0,0,4.643-2.376,5.8-7.248,0-.009,0-.016,0-.026a3.221,3.221,0,0,0-5.8-2.765,3.218,3.218,0,0,0-5.818,2.709Zm3.5,1.877,2.026.749,1.825-3.864a1.048,1.048,0,0,1,1.07-.554l.655.116a.451.451,0,0,1,.318.757L160.084,8.87a.486.486,0,0,1-.86,0l-1.582-2.29C157.4,6.237,157.529,6.076,157.923,6.22Z" transform="translate(-143.715)" fill="#fff"/>
</svg>
