<svg id="pharmacy-icon" xmlns="http://www.w3.org/2000/svg" width="28.433" height="34.106" viewBox="0 0 28.433 34.106">
  <g id="Group_13" data-name="Group 13" transform="translate(0 0)">
    <path id="Path_24" data-name="Path 24" d="M324.406,3.515c4.332,0,7.343,4.159,6.833,8.272a7.024,7.024,0,0,1-6.869,6.069h-4.055V21.8h4.055A10.914,10.914,0,0,0,334.746,14a10.8,10.8,0,0,0,.366-4.389,11.052,11.052,0,0,0-.754-2.853A10.8,10.8,0,0,0,327.374.425a11.7,11.7,0,0,0-7.339.359,11.061,11.061,0,0,0-3.32,2.024,8.3,8.3,0,0,0-1.479,1.805H320.7A6.985,6.985,0,0,1,324.406,3.515Z" transform="translate(-306.76 0)" fill="#fff"/>
    <path id="Path_25" data-name="Path 25" d="M88.15,174.4v5.972c.894.215,2.01.52,3.23.94V174.4a10.786,10.786,0,0,0,9.1-9.464,1.075,1.075,0,0,0-1.069-1.191H80.122a1.073,1.073,0,0,0-1.069,1.191A10.782,10.782,0,0,0,88.15,174.4Z" transform="translate(-79.045 -157.864)" fill="#fff"/>
    <path id="Path_26" data-name="Path 26" d="M280.74,812.087a.538.538,0,0,0,.531-.628,3.764,3.764,0,0,0-1.382-2.329,4.256,4.256,0,0,0-.359-.251c-.115-.072-.237-.136-.359-.2v-.736a27.689,27.689,0,0,0-3.23-1v1.74a3.487,3.487,0,0,0-.359.2,3.562,3.562,0,0,0-.359.251,3.764,3.764,0,0,0-1.382,2.329.54.54,0,0,0,.531.628Z" transform="translate(-266.844 -777.981)" fill="#fff"/>
    <path id="Path_27" data-name="Path 27" d="M186.762,501.706V497.74c-2.588.1-4.124,2.243-4.124,4.856a4.908,4.908,0,0,0,2.311,4.134,7.62,7.62,0,0,0,2.243.786h0a24.159,24.159,0,0,1,9.844,4.73,1.973,1.973,0,0,0,2.785-.212,1.843,1.843,0,0,0,.126-.165,1.95,1.95,0,0,0,.165-.291c.014-.032.029-.068.043-.1a2.088,2.088,0,0,0,.079-.24,1.973,1.973,0,0,0-.628-1.985,25.989,25.989,0,0,0-8.362-4.637c-.94-.33-1.895-.621-2.86-.865-.352-.09-.711-.179-1.066-.255C185.742,503.148,185.742,501.935,186.762,501.706Z" transform="translate(-178.92 -479.877)" fill="#fff"/>
  </g>
</svg>
