<svg xmlns="http://www.w3.org/2000/svg" width="18.71" height="16.631" viewBox="0 0 18.71 16.631">
  <path id="FontAwsome_hand-holding-usd_" data-name="FontAwsome (hand-holding-usd)" d="M8.8,4.687l1.763.464a.279.279,0,0,1,.215.263.286.286,0,0,1-.3.273H9.33a.974.974,0,0,1-.363-.071.465.465,0,0,0-.5.065l-.617.568a.379.379,0,0,0-.073.086.371.371,0,0,0,.126.511,2.721,2.721,0,0,0,1.121.374V7.8a.545.545,0,0,0,.564.52h.564a.545.545,0,0,0,.565-.52V7.224a1.865,1.865,0,0,0,1.738-2.046,1.97,1.97,0,0,0-1.512-1.549L9.182,3.164A.279.279,0,0,1,8.967,2.9a.286.286,0,0,1,.3-.273h1.156a.974.974,0,0,1,.365.071.466.466,0,0,0,.5-.065l.617-.568a.367.367,0,0,0,.07-.084.371.371,0,0,0-.125-.513A2.723,2.723,0,0,0,10.722,1.1V.52A.545.545,0,0,0,10.158,0H9.594A.545.545,0,0,0,9.03.52v.572A1.866,1.866,0,0,0,7.292,3.138,1.972,1.972,0,0,0,8.8,4.687Zm9.556,5.97a1.075,1.075,0,0,0-1.384,0l-3,2.4a2.067,2.067,0,0,1-1.3.455H8.835a.52.52,0,0,1,0-1.039h2.543a1.078,1.078,0,0,0,1.08-.864,1.014,1.014,0,0,0,.015-.177,1.039,1.039,0,0,0-1.039-1.037h-5.2a3.822,3.822,0,0,0-2.407.854l-1.51,1.225H.52a.52.52,0,0,0-.52.52v3.118a.52.52,0,0,0,.52.52H12.108a2.079,2.079,0,0,0,1.3-.455l4.912-3.93a1.039,1.039,0,0,0,.042-1.588Z"/>
</svg>
