<svg xmlns="http://www.w3.org/2000/svg" width="24.1" height="19.28" viewBox="0 0 24.1 19.28">
  <path id="FontAwsome_user-tag_" data-name="FontAwsome (user-tag)" d="M23.747,13.741l-3.4-3.4a2.411,2.411,0,0,0-1.706-.7H15.654a1.2,1.2,0,0,0-1.205,1.205v2.983a2.4,2.4,0,0,0,.7,1.7l3.4,3.4a1.207,1.207,0,0,0,1.706,0l3.483-3.483a1.2,1.2,0,0,0,0-1.7Zm-6.884-.791a.9.9,0,1,1,.9-.9A.9.9,0,0,1,16.863,12.951ZM8.435,9.637A4.818,4.818,0,1,0,3.615,4.82a4.82,4.82,0,0,0,4.82,4.816Zm4.813,4.188V11.071a5.066,5.066,0,0,0-1.439-.233h-.629a6.555,6.555,0,0,1-5.491,0H5.061A5.068,5.068,0,0,0,0,15.9V17.47a1.808,1.808,0,0,0,1.808,1.808H15.063a1.8,1.8,0,0,0,1.427-.712l-2.184-2.184a3.592,3.592,0,0,1-1.058-2.557Z"/>
</svg>
