<svg id="pet-hotel-sign" xmlns="http://www.w3.org/2000/svg" width="42.499" height="35.192" viewBox="0 0 42.499 35.192">
  <g id="Group_8" data-name="Group 8" transform="translate(0 0)">
    <path id="Path_5" data-name="Path 5" d="M102.1,68.369a2.279,2.279,0,0,1,1.574.416,2.253,2.253,0,0,1,.778,1.694h.7a2.637,2.637,0,0,0-.3-2.31.964.964,0,0,0-1.6-.026s.1-3.5-.9-5.27c0,0,1.175-1.025.125-3.323s-1.611-3.871-1.611-3.871a1.751,1.751,0,0,1,.563-2.173c1.2-.825,4.347-1.5,3.3-3.335,0,0,.8-.787.211-2.772,0,0,.427-1.688-.4-2.249,0,0-.787-.075-1.425,1.088,0,0-1.46,1.424-2.7.862a3.016,3.016,0,0,0-3.9-1.162c-2.511,1.162-4.684,3.147-4.608,4.477.072,1.27.044,5.555,3.555,6.336A4.421,4.421,0,0,0,97.8,53.244c0-2.813-1.734-3.708-1.814-3.747a.375.375,0,0,1,.328-.674c.091.044,2.234,1.114,2.234,4.421,0,2.272-1.861,3.7-3.1,4.405a4.176,4.176,0,0,0-.757,1.907c.037.958.037,2.307.037,2.307a9.5,9.5,0,0,0-3.79,3.3,3.23,3.23,0,0,1-2.13-2.1c-.262-1.071.566-2.429,1.2-3.277.348-.464.241-.615-.252-.31-1.174.728-3.009,2.23-2.675,4.375.318,2.027,2.244,3.243,3.545,3.842a4.071,4.071,0,0,0,.5,1.066,1.9,1.9,0,0,0-.632,1.723h8.389a1.338,1.338,0,0,0,.1-1.687,1.3,1.3,0,0,0-1.016-.76,5.369,5.369,0,0,1-1.9.932.349.349,0,0,1-.109.017.375.375,0,0,1-.108-.733c1.208-.367,1.916-.855,2.108-1.452.28-.866-.5-1.985-1.321-3.058a1.383,1.383,0,0,0-1.017-.635,2.04,2.04,0,0,0-1.33.657.375.375,0,0,1-.559-.5,2.745,2.745,0,0,1,1.913-.906,2.085,2.085,0,0,1,1.587.929c.922,1.2,1.789,2.478,1.46,3.667a3.043,3.043,0,0,0,.475-.6c-.683-4.686-1.984-5.852-2.017-5.879a.375.375,0,0,1,.463-.59c.1.075,2.323,1.9,2.666,10.6H103.7a1.513,1.513,0,0,0-.487-1.1,1.746,1.746,0,0,0-1.332-.221l-.355.091-.1-.353c-.031-.108-.293-1.2-.034-5.63.236-4.058-1.671-4.537-1.762-4.557a.373.373,0,0,1-.293-.438.377.377,0,0,1,.439-.3c.109.021,2.643.566,2.364,5.336A32.983,32.983,0,0,0,102.1,68.369Z" transform="translate(-79.997 -45.148)" fill="#fff"/>
    <path id="Path_6" data-name="Path 6" d="M294.465,234.9a2.992,2.992,0,0,1,.59,1.792h5.01a1.479,1.479,0,0,0,1.479-1.48v-4.229a1.48,1.48,0,0,0-1.479-1.48h-.987v-1.081a1.481,1.481,0,0,0-1.48-1.48h-2.137a1.481,1.481,0,0,0-1.48,1.48v1.081h-1.457a2.917,2.917,0,0,1-.284.628A12.438,12.438,0,0,1,293,234.15,1.642,1.642,0,0,1,294.465,234.9Zm.5-6.476a.494.494,0,0,1,.493-.494H297.6a.494.494,0,0,1,.494.494v1.081h-3.124v-1.081Z" transform="translate(-268.592 -212.233)" fill="#fff"/>
    <path id="Path_7" data-name="Path 7" d="M15.467,305.21a1.423,1.423,0,0,1,.34-.557c-4.857-1.162-10.634-3.847-13.224-7.38a2.844,2.844,0,0,0-1.89-1.251c-.624,0-.894.615-.526,1.336,2.9,5.689,9.394,9.983,17.25,11.044l.1-.314-1.06-.769C15.277,306.462,15.33,305.629,15.467,305.21Z" transform="translate(0.001 -275.721)" fill="#fff"/>
    <path id="Path_8" data-name="Path 8" d="M318.133,293.923a2.789,2.789,0,0,0-1.883,1.262c-2.635,3.709-8.653,6.519-13.776,7.635a1.464,1.464,0,0,1,.256.459c.137.419.19,1.25-.988,2.108l-1.064.772.12.372c8.19-.937,14.982-5.349,17.89-11.263C319.046,294.541,318.763,293.923,318.133,293.923Z" transform="translate(-276.347 -273.791)" fill="#fff"/>
    <path id="Path_9" data-name="Path 9" d="M210.4,380.874l1.709-1.24c.942-.687.762-1.242-.4-1.242H209.6l-.655-2.01c-.359-1.109-.945-1.109-1.3,0s-.654,2.01-.654,2.01H204.87c-1.167,0-1.348.557-.4,1.242s1.71,1.24,1.71,1.24l-.655,2.009c-.359,1.11.115,1.454,1.06.769s1.707-1.241,1.707-1.241L210,383.653c.943.685,1.417.341,1.056-.769Z" transform="translate(-187.364 -348.814)" fill="#fff"/>
  </g>
</svg>
